<svg width="112" height="68" viewBox="0 0 112 68" fill="none" xmlns="http://www.w3.org/2000/svg">
  <g clip-path="url(#clip0_536_2856)">
    <path d="M14.6127 21.54C6.75598 21.54 0.208958 24.9127 0.208958 35.088C0.208958 43.149 4.61135 48.2254 14.8156 48.2254C26.8265 48.2254 27.5964 40.2198 27.5964 40.2198H21.7766C21.7766 40.2198 20.5288 44.5305 14.4606 44.5305C9.51822 44.5305 5.96347 41.1522 5.96347 36.4171H28.205V33.4458C28.205 28.7613 25.266 21.54 14.6127 21.54ZM14.4099 25.3375C19.1145 25.3375 22.3218 28.2538 22.3218 32.6247H6.09219C6.09219 27.9845 10.2785 25.3375 14.4099 25.3375Z" fill="#8B8B8B"/>
    <path d="M28.201 11.6869V43.1154C28.201 44.8994 28.0751 47.4043 28.0751 47.4043H33.626C33.626 47.4043 33.8253 45.6052 33.8253 43.961C33.8253 43.961 36.5678 48.3023 44.0248 48.3023C51.8774 48.3023 57.2114 42.786 57.2114 34.8827C57.2114 27.5303 52.312 21.617 44.0375 21.617C36.2891 21.617 33.8813 25.8507 33.8813 25.8507V11.6869H28.201ZM42.6047 25.5043C47.9373 25.5043 51.3282 29.5088 51.3282 34.8827C51.3282 40.6452 47.4118 44.415 42.6428 44.415C36.9514 44.415 33.8813 39.9186 33.8813 34.934C33.8813 30.2893 36.6362 25.5043 42.6047 25.5043Z" fill="#BEBEBE"/>
    <path d="M71.0064 21.54C59.1865 21.54 58.4284 28.0886 58.4284 29.1351H64.3117C64.3117 29.1351 64.6202 25.3119 70.6006 25.3119C74.4868 25.3119 77.4982 27.1117 77.4982 30.572V31.8036H70.6006C61.4436 31.8036 56.6026 34.5141 56.6026 40.0145C56.6026 45.4276 61.0755 48.3729 67.1201 48.3729C75.358 48.3729 78.0117 43.7671 78.0117 43.7671C78.0117 45.599 78.1513 47.4043 78.1513 47.4043H83.3815C83.3815 47.4043 83.1786 45.1666 83.1786 43.735V31.361C83.1786 23.2475 76.7108 21.54 71.0064 21.54ZM77.4982 35.4985V37.1407C77.4982 39.2825 76.192 44.6074 68.5022 44.6074C64.2913 44.6074 62.4858 42.481 62.4858 40.0145C62.4858 35.5274 68.5658 35.4985 77.4982 35.4985Z" fill="#CECECE"/>
    <path d="M80.0107 22.5674H86.6294L96.128 41.8226L105.605 22.5674H111.601L94.3384 56.8478H88.0495L93.0307 47.2916L80.0107 22.5674Z" fill="#BEBEBE"/>
  </g>
  <defs>
    <clipPath id="clip0_536_2856">
      <rect width="112" height="68" fill="white"/>
    </clipPath>
  </defs>
</svg>
