<svg width="162" height="68" viewBox="0 0 162 68" fill="none" xmlns="http://www.w3.org/2000/svg">
  <g clip-path="url(#clip0_536_2729)">
    <path d="M12.049 46.4963H6.01254V30.4802H1.90039V25.2657H6.01238V21.5553C6.01238 17.1583 7.83112 14.0049 13.8512 14.0049C15.1245 14.0049 17.1235 14.278 17.1235 14.278V19.12H15.0239C12.8846 19.12 12.0493 19.8126 12.0493 21.7273V25.2657H17.0434L16.5986 30.4802H12.0492L12.049 46.4963ZM25.8998 24.849C25.8119 24.849 25.7213 24.8525 25.6318 24.8548C20.0344 24.8548 17.4735 29.336 17.4735 35.6971C17.4735 43.7104 20.7954 46.9176 25.6755 46.9176C28.4676 46.9176 30.3021 45.6668 31.4171 43.3326V46.4985H37.1586V25.268H31.4171V28.5329C30.5066 26.4323 28.6209 24.8739 25.8998 24.849ZM27.3597 29.8657C29.7106 29.8657 31.1217 31.611 31.1217 34.5796L31.1271 37.6117C31.1271 39.6126 29.9616 41.9534 27.3597 41.9534C23.3595 41.9534 23.4664 37.3563 23.4664 35.8252C23.4664 30.6748 25.5977 29.8657 27.3597 29.8657ZM39.4773 35.8843C39.4773 33.3045 39.3613 24.8629 49.6948 24.8629C53.8428 24.8629 55.5749 26.2666 55.5749 26.2666L54.1828 30.8622C54.1828 30.8622 52.4529 29.8484 50.1989 29.8484C47.312 29.8484 45.4699 31.6296 45.4699 34.7636L45.4731 37.0108C45.4731 40.0223 47.2505 42.0325 50.2049 42.0325C52.2583 42.0325 54.1509 41.0091 54.1509 41.0091L55.5395 45.5087C55.5395 45.5087 53.9558 46.9213 49.7238 46.9213C39.8847 46.9213 39.4773 39.3476 39.4773 35.8843ZM89.2396 24.8548C94.8371 24.8548 97.4384 29.336 97.4384 35.6971C97.4384 43.7104 94.1164 46.9176 89.2362 46.9176C86.4441 46.9176 84.3801 45.6669 83.2651 43.3326V46.4985L77.5959 46.4961V14.6504L83.6152 14.0917V28.2453C84.4839 25.7691 87.3389 24.8548 89.2396 24.8548ZM87.5521 29.8657C85.2011 29.8657 83.6152 31.611 83.6152 34.5796L83.6096 37.6117C83.606 39.6126 84.7079 41.9534 87.5521 41.9534C91.5522 41.9534 91.4454 37.3563 91.4454 35.8252C91.4454 30.6748 89.3143 29.8657 87.5521 29.8657ZM66.0189 24.8724C59.6702 24.8724 56.3186 28.5565 56.3186 35.1034V36.3198C56.3186 44.8172 61.0254 47.0049 66.6368 47.0049C72.0911 47.0049 74.5599 45.3812 74.5599 45.3812L73.4336 41.0572C73.4336 41.0572 70.5295 42.3723 67.3585 42.3723C64.0712 42.3723 62.6575 41.4806 62.2951 38.1183H75.0412V34.6494C75.0412 27.5476 71.2797 24.8724 66.0189 24.8724ZM66.1719 29.2022C68.3695 29.2022 69.7935 30.6364 69.7154 33.9628H62.3061C62.4346 30.4618 63.9703 29.2022 66.1719 29.2022ZM109.441 24.8432C102.921 24.8432 99.4888 28.7536 99.4888 35.7611C99.4888 45.3757 105.405 46.9234 109.452 46.9234C115.375 46.9234 119.316 43.5292 119.316 35.8484C119.316 27.854 114.885 24.8432 109.441 24.8432ZM109.359 29.8831C112.225 29.8831 113.361 32.1667 113.361 34.766V37.0008C113.361 40.1496 111.772 41.9709 109.348 41.9709C107.081 41.9709 105.487 40.2673 105.487 37.0008V34.766C105.487 31.2823 107.383 29.8831 109.359 29.8831ZM131.308 24.8432C124.788 24.8432 121.356 28.7536 121.356 35.7611C121.356 45.3757 127.272 46.9234 131.318 46.9234C137.242 46.9234 141.183 43.5292 141.183 35.8484C141.183 27.854 136.752 24.8432 131.308 24.8432ZM131.226 29.8831C134.092 29.8831 135.228 32.1667 135.228 34.766V37.0008C135.228 40.1496 133.639 41.9709 131.215 41.9709C128.947 41.9709 127.354 40.2673 127.354 37.0008V34.766C127.354 31.2823 129.25 29.8831 131.226 29.8831ZM143.458 46.4963V14.6504L149.494 14.0918V35.4369L155.484 25.2659H161.859L155.611 35.8001L162.099 46.4963H155.706L149.494 36.1102V46.4963H143.458Z" fill="#7B7B7D"/>
  </g>
  <defs>
    <clipPath id="clip0_536_2729">
      <rect width="162" height="68" fill="white"/>
    </clipPath>
  </defs>
</svg>
