<svg width="150" height="68" viewBox="0 0 150 68" fill="none" xmlns="http://www.w3.org/2000/svg">
  <path d="M64.7634 36.7863C64.7634 43.836 59.243 49.0307 52.4682 49.0307C45.6935 49.0307 40.1731 43.836 40.1731 36.7863C40.1731 29.6869 45.6935 24.5418 52.4682 24.5418C59.243 24.5418 64.7634 29.6869 64.7634 36.7863ZM59.3811 36.7863C59.3811 32.3809 56.1816 29.3667 52.4682 29.3667C48.7549 29.3667 45.5554 32.3809 45.5554 36.7863C45.5554 41.1475 48.7549 44.2058 52.4682 44.2058C56.1816 44.2058 59.3811 41.1419 59.3811 36.7863Z" fill="#7F7F7F"/>
  <path d="M91.2875 36.7863C91.2875 43.836 85.7671 49.0308 78.9924 49.0308C72.2176 49.0308 66.6973 43.836 66.6973 36.7863C66.6973 29.6924 72.2176 24.5418 78.9924 24.5418C85.7671 24.5418 91.2875 29.6869 91.2875 36.7863ZM85.9053 36.7863C85.9053 32.3809 82.7058 29.3667 78.9924 29.3667C75.279 29.3667 72.0795 32.3809 72.0795 36.7863C72.0795 41.1475 75.279 44.2058 78.9924 44.2058C82.7058 44.2058 85.9053 41.1419 85.9053 36.7863Z" fill="#C6C6C6"/>
  <path d="M116.707 25.2815V47.2642C116.707 56.3068 111.369 60 105.058 60C99.1177 60 95.5424 56.0308 94.1941 52.7847L98.8801 50.836C99.7145 52.8289 101.759 55.1806 105.052 55.1806C109.092 55.1806 111.595 52.6908 111.595 48.0039V46.2429H111.407C110.203 47.7279 107.882 49.0252 104.953 49.0252C98.8248 49.0252 93.2105 43.6924 93.2105 36.8304C93.2105 29.9188 98.8248 24.5418 104.953 24.5418C107.876 24.5418 110.197 25.8391 111.407 27.28H111.595V25.2871H116.707V25.2815ZM111.976 36.8304C111.976 32.5189 109.097 29.3667 105.434 29.3667C101.72 29.3667 98.6093 32.5189 98.6093 36.8304C98.6093 41.0978 101.72 44.2058 105.434 44.2058C109.097 44.2058 111.976 41.0978 111.976 36.8304Z" fill="#878787"/>
  <path d="M125.134 12.3967V48.2799H119.884V12.3967H125.134Z" fill="#7F7F7F"/>
  <path d="M145.59 40.8162L149.768 43.5986C148.42 45.5915 145.17 49.0252 139.556 49.0252C132.593 49.0252 127.394 43.6483 127.394 36.7807C127.394 29.4992 132.638 24.5363 138.954 24.5363C145.314 24.5363 148.425 29.593 149.442 32.3257L150 33.7169L133.616 40.496C134.87 42.9527 136.821 44.2058 139.556 44.2058C142.297 44.2058 144.198 42.8588 145.59 40.8162ZM132.732 36.4109L143.684 31.8675C143.082 30.3383 141.269 29.2729 139.136 29.2729C136.401 29.2729 132.593 31.6853 132.732 36.4109Z" fill="#7F7F7F"/>
  <path d="M20.3019 33.6009V28.4062H37.8245C37.9958 29.3115 38.0842 30.3825 38.0842 31.5418C38.0842 35.4393 37.0177 40.2587 33.5806 43.6924C30.2375 47.1703 25.966 49.0252 20.3074 49.0252C9.81931 49.0252 1 40.4905 1 30.0126C1 19.5347 9.81931 11 20.3074 11C26.1096 11 30.243 13.2744 33.3485 16.239L29.6794 19.9046C27.4524 17.8178 24.4353 16.1948 20.3019 16.1948C12.643 16.1948 6.65298 22.3612 6.65298 30.0126C6.65298 37.664 12.643 43.8304 20.3019 43.8304C25.2697 43.8304 28.0989 41.8375 29.9114 40.0268C31.3813 38.5584 32.3484 36.4606 32.7296 33.5954L20.3019 33.6009Z" fill="#878787"/>
</svg>
