<svg fill="none" height="24" viewBox="0 0 24 24" width="24" xmlns="http://www.w3.org/2000/svg"><path clip-rule="evenodd" d="m6.25 8c0-3.17564 2.57436-5.75 5.75-5.75 3.1756 0 5.75 2.57436 5.75 5.75v1.35643c.3398.05788.6542.15035.9525.3023.7056.35957 1.2793.93317 1.6388 1.63877.2263.4443.3207.9244.3653 1.471.0434.5309.0434 1.1865.0434 1.9994v1.4642c0 .8129 0 1.4685-.0434 1.9994-.0446.5466-.139 1.0267-.3653 1.471-.3595.7056-.9332 1.2792-1.6388 1.6388-.4443.2263-.9244.3207-1.471.3653-.5309.0434-1.1865.0434-1.9994.0434h-6.46422c-.81283 0-1.46844 0-1.99935-.0434-.54663-.0446-1.02678-.139-1.47099-.3653-.70561-.3596-1.27929-.9332-1.63881-1.6388-.22634-.4443-.3207-.9244-.36537-1.471-.04337-.5309-.04337-1.1866-.04336-1.9994v-1.4642c-.00001-.8128-.00001-1.4685.04336-1.9994.04467-.5466.13903-1.0267.36537-1.471.35952-.7056.9332-1.2792 1.63881-1.63877.29821-.15195.61262-.24442.95246-.3023zm1.5 1.25412c.3086-.00413.64687-.00412 1.0179-.00412h6.4642c.371 0 .7093-.00001 1.0179.00412v-1.25412c0-2.34721-1.9028-4.25-4.25-4.25-2.34721 0-4.25 1.90279-4.25 4.25zm-.85932 1.53428c-.45388.0371-.71464.1062-.91216.2068-.42336.2158-.76757.56-.98328.9833-.10064.1975-.16977.4583-.20686.9122-.0378.4626-.03838 1.0568-.03838 1.9093v1.4c0 .8525.00058 1.4467.03838 1.9093.03709.4539.10622.7147.20686.9122.21571.4233.55992.7675.98328.9833.19752.1006.45828.1697.91216.2068.46263.0378 1.05687.0384 1.90932.0384h6.4c.8525 0 1.4467-.0006 1.9093-.0384.4539-.0371.7147-.1062.9122-.2068.4233-.2158.7675-.56.9833-.9833.1006-.1975.1697-.4583.2068-.9122.0378-.4626.0384-1.0568.0384-1.9093v-1.4c0-.8525-.0006-1.4467-.0384-1.9093-.0371-.4539-.1062-.7147-.2068-.9122-.2158-.4233-.56-.7675-.9833-.9833-.1975-.1006-.4583-.1697-.9122-.2068-.4626-.0378-1.0568-.0384-1.9093-.0384h-6.4c-.85245 0-1.44669.0006-1.90932.0384zm5.10932 2.9616c.4142 0 .75.3358.75.75v2c0 .4142-.3358.75-.75.75s-.75-.3358-.75-.75v-2c0-.4142.3358-.75.75-.75z" fill="currentColor" fill-rule="evenodd"/></svg>
