<svg fill="none" height="24" viewBox="0 0 24 24" width="24" xmlns="http://www.w3.org/2000/svg"><path clip-rule="evenodd" d="m6.7679 3.25h10.4642c.8128-.00001 1.4685-.00001 1.9994.04336.5466.04467 1.0267.13903 1.471.36537.7056.35952 1.2793.9332 1.6388 1.63881.2227.43702.3176.9088.3631 1.44447.0509.13858.0586.287.0264.42664.0192.45131.0192.97959.0192 1.59923v6.46422c0 .8129 0 1.4685-.0434 1.9994-.0446.5466-.139 1.0267-.3653 1.471-.3595.7056-.9332 1.2793-1.6388 1.6388-.4443.2263-.9244.3207-1.471.3653-.5309.0434-1.1865.0434-1.9994.0434h-10.46422c-.81283 0-1.46844 0-1.99934-.0434-.54664-.0446-1.02678-.139-1.471-.3653-.70561-.3595-1.27929-.9332-1.63881-1.6388-.22634-.4443-.3207-.9244-.36536-1.471-.04338-.5309-.04337-1.1866-.04337-1.9994v-6.4642c0-.61965-.00001-1.14792.01921-1.59924-.03218-.13964-.02449-.28807.02637-.42666.04554-.53566.14048-1.00745.36315-1.44446.35952-.70561.9332-1.27929 1.63881-1.63881.44422-.22634.92436-.3207 1.471-.36537.5309-.04337 1.18652-.04337 1.99936-.04336zm-4.01774 5.1906c-.00014.11449-.00016.23416-.00016.3594v6.4c0 .8525.00059 1.4467.03839 1.9093.03708.4539.10621.7147.20685.9122.21571.4233.55992.7675.98328.9833.19752.1006.45829.1697.91216.2068.46263.0378 1.05687.0384 1.90932.0384h10.4c.8525 0 1.4467-.0006 1.9093-.0384.4539-.0371.7147-.1062.9122-.2068.4233-.2158.7676-.56.9833-.9833.1006-.1975.1697-.4583.2068-.9122.0378-.4626.0384-1.0568.0384-1.9093v-6.4c0-.12524 0-.24491-.0002-.3594l-6.9846 4.8893c-.034.0238-.0675.0473-.1006.0705-.5615.3938-1.0018.7026-1.4995.8266-.4367.1089-.8935.1089-1.3302 0-.4977-.124-.938-.4328-1.49945-.8266-.0331-.0232-.06664-.0467-.10062-.0705zm18.43704-1.78713-7.7822 5.44753c-.712.4984-.9105.6227-1.1027.6706-.1985.0495-.4061.0495-.6046 0-.1922-.0479-.3907-.1722-1.1027-.6706l-7.7822-5.44753c.03988-.31284.10079-.51471.18244-.67495.21571-.42336.55992-.76757.98328-.98328.19752-.10064.45829-.16977.91216-.20686.46263-.0378 1.05687-.03838 1.90932-.03838h10.4c.8525 0 1.4467.00058 1.9093.03838.4539.03709.7147.10622.9122.20686.4233.21571.7676.55992.9833.98328.0816.16024.1425.36211.1824.67495z" fill="currentColor" fill-rule="evenodd"/></svg>
