<svg width="124" height="68" viewBox="0 0 124 68" fill="none" xmlns="http://www.w3.org/2000/svg">
  <g clip-path="url(#clip0_536_2857)">
    <path d="M17.3642 50.0956C15.5119 50.4327 13.627 50.5338 11.6771 50.803L5.7299 32.7484V51.5779C3.87759 51.7799 2.18774 52.0494 0.432835 52.3189V17.8261H5.37264L12.132 37.397V17.8261H17.3642V50.0956ZM27.601 30.4577C29.616 30.4577 32.7033 30.3567 34.5556 30.3567V35.746C32.2481 35.746 29.551 35.746 27.601 35.8471V43.8641C30.6559 43.6621 33.7107 43.3924 36.7979 43.2913V48.4784L22.4012 49.6576V17.8261H36.7979V23.2156H27.601V30.4577ZM56.134 23.2157H50.7395V48.0074C48.9846 48.0074 47.2297 48.0074 45.54 48.0745V23.2157H40.1455V17.8261H56.1343L56.134 23.2157ZM64.5834 30.0873H71.7006V35.4767H64.5834V47.7042H59.4809V17.8261H74.0079V23.2156H64.5834V30.0873ZM82.4573 42.9883C85.4146 43.0555 88.4043 43.2917 91.2967 43.4598V48.782C86.6496 48.4786 82.0023 48.1759 77.2577 48.0745V17.8261H82.4573V42.9883ZM95.6839 49.1525C97.3412 49.2537 99.0961 49.3548 100.786 49.5566V17.8261H95.6839V49.1525ZM123.567 17.8261L116.97 34.2304L123.567 52.3189C121.617 52.0494 119.667 51.6788 117.717 51.3419L113.98 41.3716L110.178 50.5338C108.293 50.1966 106.473 50.0956 104.589 49.8261L111.283 34.0281L105.238 17.8261H110.828L114.24 26.8872L117.88 17.8261H123.567Z" fill="#7A7A7A"/>
  </g>
  <defs>
    <clipPath id="clip0_536_2857">
      <rect width="124" height="68" fill="white"/>
    </clipPath>
  </defs>
</svg>
