<svg width="90" height="68" viewBox="0 0 90 68" fill="none" xmlns="http://www.w3.org/2000/svg">
  <g clip-path="url(#clip0_536_2855)">
    <path d="M37.0694 47.7819C34.135 47.6328 31.9455 46.4918 30.6649 44.4447C29.8058 43.0704 29.5443 41.2631 29.9373 39.4163C30.3729 37.3699 31.8517 35.526 34.1213 34.1997C35.4255 33.437 36.5418 32.9636 38.8148 32.2087C39.3863 32.0189 39.8795 31.8442 39.9113 31.8198C39.9569 31.7857 39.9633 31.6646 39.9405 31.2717C39.8752 30.1538 40.0725 28.4123 40.4067 27.1555C40.9687 25.0405 42.0501 23.3343 43.4855 22.2993C44.5158 21.5558 45.8664 20.9966 47.2111 20.7569C47.9537 20.6248 49.1972 20.6252 49.896 20.7581C52.8901 21.3278 54.5706 23.5086 53.9088 25.9657C53.7695 26.4838 53.3292 27.333 52.9563 27.8028C52.0013 29.0063 50.5647 30.0766 48.5359 31.0949C48.2809 31.2233 47.4458 31.6109 46.6809 31.9571C45.9159 32.3029 45.2661 32.6089 45.236 32.6374C45.1935 32.6776 45.2042 32.795 45.2868 33.19C45.6673 35.016 46.3072 36.5589 47.3998 38.2842C47.8341 38.9709 48.4348 39.8368 48.5032 39.877C48.6021 39.9347 49.0063 39.3175 49.2699 38.7068C49.5958 37.951 49.7825 36.9514 49.6905 36.4549C49.6242 36.0993 49.4187 35.7239 49.1564 35.4813C49.036 35.3691 48.9362 35.2631 48.9358 35.2456C48.9354 35.2286 49.9536 35.2188 51.1993 35.2249L53.4642 35.2359L53.4513 35.5073C53.4336 35.8783 53.2879 36.6694 53.1344 37.2326C52.7013 38.8161 51.8852 40.1704 50.4744 41.6495C50.3079 41.8238 50.1716 41.9949 50.1716 42.0298C50.1716 42.0648 50.4056 42.3073 50.6911 42.569C52.4743 44.2025 55.6331 46.0863 58.205 47.0497C58.4548 47.1435 58.6586 47.239 58.6578 47.2618C58.6569 47.2894 57.1721 47.3073 54.3186 47.3146L49.9807 47.3252L49.7339 47.1939C49.2299 46.9262 48.1141 46.0741 47.0421 45.1379C46.815 44.9396 46.6 44.7775 46.5643 44.7775C46.5286 44.7775 46.2762 44.916 46.0045 45.0855C44.6117 45.9534 42.9471 46.7331 41.5393 47.1769C39.938 47.6819 38.6161 47.8603 37.0694 47.7819ZM40.7219 44.2305C41.3712 44.1212 42.1688 43.8985 42.9024 43.6218C43.6399 43.3439 44.554 42.9189 44.5867 42.8384C44.5996 42.8067 44.4306 42.5398 44.2118 42.2448C43.2025 40.886 42.1245 38.975 41.4 37.261C41.1329 36.6292 40.6341 35.2298 40.5387 34.8462C40.5086 34.7239 40.454 34.613 40.4174 34.5995C40.3164 34.563 39.4877 34.9803 38.7718 35.4289C36.227 37.0229 35.0071 38.9689 35.278 41.0022C35.3984 41.9059 35.7011 42.5645 36.252 43.1208C37.2702 44.1488 38.8621 44.5442 40.7219 44.2305ZM45.0412 30.0917C45.983 29.5707 47.4768 28.3058 48.3123 27.3225C49.3817 26.0641 49.9502 24.8897 49.9506 23.9373C49.9506 23.3928 49.8689 23.149 49.6023 22.8971C49.337 22.6468 49.0377 22.5431 48.5806 22.5427C47.2244 22.5427 45.7576 24.0641 45.1186 26.1339C44.7961 27.1774 44.7179 27.739 44.7157 29.0136C44.714 29.9872 44.7308 30.2038 44.8082 30.2038C44.825 30.2038 44.9299 30.1534 45.0412 30.0917ZM67.4716 47.7575C65.2368 47.545 63.7641 47.2293 62.1025 46.6076C59.8416 45.7608 58.4299 44.712 57.2375 42.9936C56.8806 42.4792 56.3078 41.3992 56.0765 40.8023C55.0423 38.1428 54.8152 34.7946 55.4314 31.3017C56.0554 27.7666 57.4765 24.3595 59.4374 21.6963C60.7093 19.9694 62.6018 18.1507 64.5553 16.7772C67.7812 14.5099 71.4942 13.1162 75.6193 12.6261C76.8706 12.4774 77.5715 12.4392 79.0494 12.44C81.285 12.4412 82.9879 12.6021 85.2363 13.0243C86.6708 13.2941 88.9559 13.8768 88.9997 13.9845C89.0221 14.0389 87.5743 18.4237 87.5145 18.4826C87.496 18.5009 87.2737 18.3607 87.0213 18.1698C84.9878 16.6379 82.8804 15.7053 80.7493 15.3953C80.0686 15.2961 78.7893 15.2949 78.1219 15.3929C75.1342 15.8301 72.3642 17.6338 69.905 20.7435C69.106 21.7536 68.2258 23.1076 67.5412 24.3786C66.6137 26.1014 65.976 27.6244 65.331 29.6609C63.2764 36.1404 63.1724 40.6674 65.0214 43.118C65.7829 44.1277 66.8962 44.7709 68.3088 45.0168C69.1198 45.1582 71.0883 45.0724 71.2844 44.8876C71.3158 44.8583 72.2769 42.0168 73.4198 38.5731C75.2981 32.9165 75.5011 32.2786 75.5226 31.958C75.5509 31.5272 75.4662 31.1424 75.2611 30.7719C75.0749 30.435 74.583 29.9779 74.1775 29.7654C74.0025 29.6735 73.8589 29.5841 73.8584 29.5671C73.858 29.55 77.0091 29.5358 80.8615 29.5358C84.7135 29.5358 87.8654 29.55 87.865 29.5671C87.865 29.5841 87.6942 29.6723 87.4857 29.7621C86.3952 30.2335 85.6048 30.9397 85.1349 31.8637C85.0329 32.0636 84.1514 34.6511 82.8275 38.6357L80.6848 45.0842L80.0655 45.3646C77.5436 46.5084 74.4583 47.3321 71.3807 47.6836C70.8153 47.7486 67.9446 47.8026 67.4716 47.7575ZM3.00142 47.2862C2.98723 47.265 3.08055 47.1907 3.20826 47.1212C3.96937 46.7071 4.82378 45.8481 5.18584 45.1322C5.29077 44.9249 14.8984 16.0101 15.1104 15.2628C15.1478 15.132 15.1792 14.8557 15.1796 14.6493C15.1826 14.0186 14.9753 13.5639 14.4873 13.1275C14.354 13.0085 14.2452 12.8935 14.2452 12.8719C14.2452 12.8147 31.0218 12.8195 31.7911 12.8772C33.4569 13.002 35.1245 13.4205 36.3999 14.0333C38.5774 15.0796 39.8812 16.6675 40.282 18.7614C40.3938 19.3441 40.4153 20.6403 40.3237 21.2677C39.9504 23.8251 38.724 26.5378 37.0543 28.5004C34.3496 31.6796 29.9262 33.7125 24.4974 34.2716C22.7765 34.4488 20.608 34.4935 19.0724 34.383C18.6286 34.3509 18.2563 34.3334 18.2451 34.344C18.1905 34.396 14.7268 44.8977 14.6872 45.1322C14.5651 45.8551 14.959 46.6677 15.638 47.0936C15.7721 47.1777 15.8702 47.2642 15.8564 47.2854C15.822 47.3378 3.03582 47.3386 3.00142 47.2862ZM22.0446 31.6881C23.3058 31.4769 24.4187 31.0356 25.4924 30.3216C26.014 29.975 27.0855 28.9637 27.5276 28.4009C28.6336 26.9937 29.4471 25.3335 30.1033 23.1466C30.5213 21.7528 30.6993 20.6911 30.6989 19.5968C30.6989 18.7533 30.618 18.2494 30.3936 17.6842C30.0603 16.8455 29.3818 16.1828 28.5196 15.8536C27.7791 15.5708 27.147 15.4965 25.6265 15.5131L24.4801 15.5253L21.8154 23.5431C20.3504 27.9531 19.1593 31.5825 19.1692 31.6085C19.1795 31.6345 19.3635 31.6784 19.5777 31.706C19.7927 31.7337 19.9978 31.7629 20.0343 31.7714C20.2012 31.81 21.6864 31.7483 22.0446 31.6881Z" fill="#7B7B7D"/>
  </g>
  <defs>
    <clipPath id="clip0_536_2855">
      <rect width="90" height="68" fill="white"/>
    </clipPath>
  </defs>
</svg>
