<svg width="80" height="80" viewBox="0 0 80 80" fill="none" xmlns="http://www.w3.org/2000/svg" class="mb-5">
  <rect width="80" height="80" fill="white"/>
  <path d="M42.5 48C28.4167 48 17 59.2279 17 73.0781V74.332C17 77.1021 19.2833 75.5859 22.1 75.5859H68C68 75.5859 71 48 47.6 48H42.5Z" fill="#E5F6F3"/>
  <path d="M42 36C49.1797 36 55 29.9558 55 22.5C55 15.0442 49.1797 9 42 9C34.8203 9 29 15.0442 29 22.5C29 29.9558 34.8203 36 42 36Z" fill="#E5F6F3"/>
  <path d="M52.7273 76H17.0909C14.2793 76 12 73.6975 12 70.8571V68.2857C12 54.0841 23.3964 42.5714 37.4545 42.5714H42.5455C56.6036 42.5714 68 54.0841 68 68.2857M56.5455 20.7143C56.5455 29.9453 49.1378 37.4286 40 37.4286C30.8622 37.4286 23.4545 29.9453 23.4545 20.7143C23.4545 11.4832 30.8622 4 40 4C49.1378 4 56.5455 11.4832 56.5455 20.7143Z" stroke="#00A287" stroke-width="3" stroke-linecap="round"/>
</svg>
