<svg fill="none" height="24" viewBox="0 0 24 24" width="24" xmlns="http://www.w3.org/2000/svg"><path clip-rule="evenodd" d="m12 3.75c-2.07106 0-3.74999 1.67893-3.74999 3.75s1.67893 3.75 3.74999 3.75c2.0711 0 3.75-1.67893 3.75-3.75s-1.6789-3.75-3.75-3.75zm-5.24999 3.75c0-2.8995 2.35051-5.25 5.24999-5.25 2.8995 0 5.25 2.3505 5.25 5.25s-2.3505 5.25-5.25 5.25c-2.89948 0-5.24999-2.3505-5.24999-5.25zm2.60699 7.25h.14301 4.99999.143c1.2581-.0003 2.06-.0005 2.7359.2045 1.5181.4605 2.7061 1.6485 3.1666 3.1666.205.6759.2048 1.4778.2045 2.7359v.143c0 .4142-.3358.75-.75.75s-.75-.3358-.75-.75c0-1.4501-.0081-2.0089-.1399-2.4434-.3151-1.0387-1.128-1.8516-2.1667-2.1667-.4345-.1318-.9933-.1399-2.4434-.1399h-4.99999c-1.45013 0-2.00893.0081-2.44343.1399-1.0387.3151-1.85154 1.128-2.16662 2.1667-.13181.4345-.13995.9933-.13995 2.4434 0 .4142-.33579.75-.75.75s-.75-.3358-.75-.75c0-.0483-.00001-.096-.00002-.143-.00028-1.2581-.00046-2.06.20456-2.7359.46051-1.5181 1.6485-2.7061 3.1666-3.1666.67584-.205 1.47774-.2048 2.73585-.2045z" fill="currentColor" fill-rule="evenodd"/></svg>
