<svg width="80" height="80" viewBox="0 0 80 80" fill="none" xmlns="http://www.w3.org/2000/svg" class="mb-5">
  <rect width="80" height="80" fill="white"/>
  <path d="M45.8351 8.85309C45.3484 8.31019 44.6537 8 43.9245 8C43.1954 8 42.5007 8.31019 42.0139 8.85309L8.65549 46.0606C7.97962 46.8145 7.81021 45.3292 8.22301 46.2537C8.6358 47.1782 9.55361 47.7736 10.5661 47.7736H18.2642V73.434C18.2642 74.8511 19.413 76 20.8302 76H32.3774C33.7946 76 34.9434 74.8511 34.9434 73.434V63.1698H45.2075V73.434C45.2075 74.8511 46.3564 76 47.7736 76H63.1698C64.587 76 65.7358 74.8511 65.7358 73.434V46.4906H73.4339C74.4464 46.4906 75.3642 45.8952 75.777 44.9707C76.1898 44.0462 76.0204 42.9654 75.3445 42.2116L45.8351 8.85309Z" fill="#E5F6F3"/>
  <path d="M14.2857 46.4286H6.57147C5.55688 46.4286 4.63713 45.832 4.22347 44.9055C3.80981 43.9791 3.97958 42.896 4.65687 42.1406L38.0854 4.85488C38.5731 4.31085 39.2693 4 40 4C40.7307 4 41.4268 4.31085 41.9146 4.85488L75.3431 42.1406C76.0204 42.896 76.1902 43.9791 75.7765 44.9055C75.3629 45.832 74.4431 46.4286 73.4285 46.4286H65.7142V73.4286C65.7142 74.8487 64.563 76 63.1428 76H47.7143C46.2941 76 45.1428 74.8487 45.1428 73.4286V63.1429H34.8571V73.4286C34.8571 74.8487 33.7059 76 32.2857 76H16.8572C15.437 76 14.2857 74.8487 14.2857 73.4286V67" stroke="#00A287" stroke-width="3" stroke-linecap="round" stroke-linejoin="round"/>
</svg>
