<svg width="130" height="68" viewBox="0 0 130 68" fill="none" xmlns="http://www.w3.org/2000/svg">
  <path d="M50.8025 47.807H41.4524L47.3006 13.4631H56.6502L50.8025 47.807Z" fill="#7A7A7A"/>
  <path d="M84.6974 14.3027C82.8532 13.6078 79.9281 12.8406 76.3112 12.8406C67.0777 12.8406 60.5755 17.5169 60.5356 24.2027C60.4589 29.1355 65.191 31.8753 68.7302 33.52C72.3476 35.2007 73.5773 36.2977 73.5773 37.7958C73.5404 40.0966 70.6542 41.1571 67.9622 41.1571C64.2292 41.1571 62.229 40.6104 59.1894 39.3303L57.9582 38.7816L56.6498 46.491C58.8427 47.4399 62.883 48.2819 67.0777 48.3188C76.8884 48.3188 83.2755 43.7148 83.3512 36.59C83.3885 32.6804 80.8898 29.6847 75.5028 27.2368C72.2325 25.6654 70.2298 24.6058 70.2298 22.998C70.2682 21.5363 71.9237 20.0392 75.6153 20.0392C78.6549 19.9658 80.8883 20.6598 82.5802 21.3542L83.4258 21.7189L84.6974 14.3027Z" fill="#7A7A7A"/>
  <path d="M97.1243 35.6402C97.8943 33.6672 100.857 26.0311 100.857 26.0311C100.818 26.1044 101.626 24.0216 102.087 22.743L102.741 25.7023C102.741 25.7023 104.512 33.9231 104.896 35.6402C103.435 35.6402 98.9711 35.6402 97.1243 35.6402ZM108.666 13.4631H101.434C99.2032 13.4631 97.5088 14.0837 96.5466 16.3127L82.6583 47.8065H92.469C92.469 47.8065 94.0842 43.5677 94.4313 42.6548C95.5076 42.6548 105.051 42.6548 106.436 42.6548C106.704 43.8605 107.552 47.8065 107.552 47.8065H116.209L108.666 13.4631Z" fill="#7A7A7A"/>
  <path d="M33.643 13.4631L24.4862 36.8824L23.4856 32.1327C21.7927 26.6522 16.4835 20.6977 10.5586 17.7369L18.9459 47.7706H28.8333L43.53 13.4631H33.643Z" fill="#7A7A7A"/>
  <path d="M15.9834 13.4631H0.940033L0.786133 14.1571C12.5209 17.0071 20.2926 23.8769 23.4856 32.1341L20.2154 16.3501C19.677 14.1566 18.0224 13.5355 15.9834 13.4631Z" fill="#D5D5D5"/>
</svg>
